<?xml version="1.0" encoding="utf-8"?>
<!-- Generator: Adobe Illustrator 24.0.0, SVG Export Plug-In . SVG Version: 6.00 Build 0)  -->
<svg version="1.1" id="Layer_1" xmlns="http://www.w3.org/2000/svg" xmlns:xlink="http://www.w3.org/1999/xlink" x="0px" y="0px"
	 viewBox="0 0 100 72" style="enable-background:new 0 0 100 72;" xml:space="preserve">
<style type="text/css">
	.st0{fill:#EBECED;}
</style>
<path class="st0" d="M39.97,6.18c4.34,4.12,6.51,9.59,6.51,16.41c0,3.06-0.41,6.12-1.23,9.18c-0.82,3.06-2.7,7.71-5.63,13.94
	L27.29,72H2.64l8.8-29.82c-3.64-1.76-6.46-4.32-8.45-7.68C1,31.15,0,27.18,0,22.59C0,15.77,2.17,10.3,6.51,6.18
	C10.86,2.06,16.43,0,23.24,0C30.05,0,35.62,2.06,39.97,6.18z"/>
<path class="st0" d="M93.49,6.18c4.34,4.12,6.51,9.59,6.51,16.41c0,3.06-0.41,6.12-1.23,9.18c-0.82,3.06-2.7,7.71-5.63,13.94
	L80.81,72H56.16l8.8-29.82c-3.64-1.76-6.46-4.32-8.45-7.68c-2-3.35-2.99-7.32-2.99-11.91c0-6.82,2.17-12.29,6.51-16.41
	C64.38,2.06,69.95,0,76.76,0C83.57,0,89.14,2.06,93.49,6.18z"/>
</svg>
